<svg width="832" height="227" xmlns="http://www.w3.org/2000/svg" xmlns:xlink="http://www.w3.org/1999/xlink" overflow="hidden"><defs><clipPath id="clip0"><rect x="0" y="0" width="832" height="227"/></clipPath></defs><g clip-path="url(#clip0)"><rect x="0" y="0" width="832" height="227.03" fill="#FFFFFF" fill-opacity="0"/><path d="M211.361-142.699 197.668-75.7939C199.43-75.4736 201.552-75.3135 204.034-75.3135 216.687-75.3135 227.137-78.8569 235.385-85.9438 243.633-93.0308 247.757-102.58 247.757-114.592 247.757-133.33 237.947-142.699 218.328-142.699ZM160.191-153.029 225.895-153.029C244.634-153.029 258.948-149.286 268.837-141.798 278.727-134.311 283.672-125.002 283.672-113.871 283.672-104.822 280.188-96.394 273.222-88.5864 266.255-80.7788 256.485-74.7129 243.913-70.3887 256.165-28.3477 273.622-7.32715 296.284-7.32715L298.206-7.32715 293.041 1.92187 286.314 2.16211C268.457 2.16211 253.803-2.78272 242.352-12.6724 230.9-22.562 221.651-39.999 214.604-64.9834 211.081-64.5029 207.678-64.2627 204.395-64.2627 201.031-64.2627 198.108-64.5029 195.626-64.9834L188.539-30.75C187.979-27.9473 187.698-25.4648 187.698-23.3027 187.698-14.1738 192.903-9.60937 203.313-9.60937L210.641-9.60937 208.719 0 131.724 0 133.645-9.60937 135.327-9.60937C141.974-9.60937 146.979-11.271 150.342-14.5942 153.705-17.9175 156.187-23.4629 157.789-31.2305L176.167-121.799C176.808-124.922 177.128-127.604 177.128-129.847 177.128-138.895 171.322-143.42 159.711-143.42L158.51-143.42ZM81.4394-156.513C86.0039-156.513 91.7495-155.512 98.6763-153.51 105.603-151.508 110.668-150.507 113.871-150.507 118.436-150.507 121.959-151.988 124.441-154.951L132.129-154.951 125.402-110.988 115.673-110.988C114.312-121.479 110.488-129.907 104.202-136.273 97.9155-142.639 90.6484-145.822 82.4004-145.822 75.9141-145.822 70.3086-143.84 65.584-139.876 60.8594-135.913 58.4971-131.208 58.4971-125.763 58.4971-122.479 59.9385-118.736 62.8213-114.532 65.7041-110.328 73.9121-102.46 87.4453-90.9287 100.979-79.3975 109.927-70.0083 114.292-62.7612 118.656-55.5142 120.838-48.6875 120.838-42.2812 120.838-29.1484 115.252-18.2378 104.082-9.54931 92.9106-0.860839 79.2773 3.4834 63.1816 3.4834 43.3223 3.4834 25.1445-0.880859 8.64844-9.60937L18.7383-48.7676 28.3477-48.7676C29.3887-20.9805 41.4404-7.08691 64.5029-7.08691 73.0713-7.08691 80.3384-9.36914 86.3042-13.9336 92.27-18.498 95.2529-23.9434 95.2529-30.2695 95.2529-33.6328 93.8315-37.4165 90.9888-41.6206 88.146-45.8247 80.1982-53.5723 67.1455-64.8633 54.0928-76.1543 45.5044-85.2632 41.3804-92.1899 37.2564-99.1167 35.1943-105.623 35.1943-111.709 35.1943-123.641 39.7988-134.091 49.0078-143.06 58.2168-152.028 69.0273-156.513 81.4394-156.513Z" stroke="#FFFFFF" stroke-linejoin="round" stroke-miterlimit="10" fill="#4472C4" fill-rule="evenodd" transform="matrix(1 0 0 1.00013 22.1093 185.859)"/><text fill="#000000" fill-opacity="0" font-family="Arial,Arial_MSFontService,sans-serif" font-size="159.996" x="8.64844" y="-16.5161">SR</text><path d="M231.02-95.2529C222.932-95.2529 215.645-81.0391 209.158-52.6113 228.777-58.3769 238.587-69.0674 238.587-84.6826 238.587-91.7295 236.064-95.2529 231.02-95.2529ZM331.067-103.061C335.952-103.061 339.816-101.899 342.659-99.5771 345.501-97.2549 346.923-94.0918 346.923-90.0879 346.923-86.1641 345.742-83.001 343.379-80.5986 341.017-78.1963 337.914-76.9951 334.07-76.9951 329.746-76.9951 325.862-78.8369 322.419-82.5205 318.976-86.2041 316.133-88.0459 313.891-88.0459 308.605-88.0459 304.461-82.5205 301.458-71.4697 298.456-60.4189 296.954-49.0478 296.954-37.3564 296.954-20.46 302.359-12.0117 313.17-12.0117 320.937-12.0117 328.225-16.5361 335.031-25.585L339.476-21.8613C334.751-14.2539 328.605-8.24805 321.038-3.84375 313.47 0.560547 305.763 2.7627 297.915 2.7627 289.267 2.7627 282.44 0.180175 277.435-4.98486 272.43-10.1499 269.928-17.1768 269.928-26.0654 269.928-42.1611 275.874-59.0176 287.765-76.6348 299.657-94.2519 314.091-103.061 331.067-103.061ZM241.109-103.061C247.115-103.061 251.94-101.419 255.583-98.1357 259.227-94.8525 261.049-90.5283 261.049-85.1631 261.049-67.626 243.312-54.8936 207.837-46.9658 206.876-42.7217 206.395-38.0371 206.395-32.9121 206.395-26.5859 208.157-21.561 211.681-17.8374 215.204-14.1138 219.929-12.252 225.854-12.252 233.862-12.252 242.951-16.2158 253.121-24.1436L256.364-19.6992C237.306-4.72461 220.729 2.7627 206.636 2.7627 198.468 2.7627 191.841-0.240234 186.756-6.24609 181.671-12.252 179.129-20.0996 179.129-29.7891 179.129-46.4453 185.355-62.8213 197.807-78.917 210.259-95.0127 224.693-103.061 241.109-103.061ZM83.3613-142.699 69.668-75.7939C71.4297-75.4736 73.5518-75.3135 76.0342-75.3135 88.6865-75.3135 99.1367-78.8569 107.385-85.9438 115.633-93.0308 119.757-102.58 119.757-114.592 119.757-133.33 109.947-142.699 90.3281-142.699ZM32.1914-153.029 97.8955-153.029C116.634-153.029 130.948-149.286 140.837-141.798 150.727-134.311 155.672-125.002 155.672-113.871 155.672-104.822 152.188-96.394 145.222-88.5864 138.255-80.7788 128.485-74.7129 115.913-70.3887 128.165-28.3477 145.622-7.32715 168.284-7.32715L170.206-7.32715 165.041 1.92188 158.314 2.16211C140.457 2.16211 125.803-2.78272 114.352-12.6724 102.9-22.562 93.6514-39.999 86.6045-64.9834 83.0811-64.5029 79.6777-64.2627 76.3945-64.2627 73.0312-64.2627 70.1084-64.5029 67.626-64.9834L60.5391-30.75C59.9785-27.9473 59.6982-25.4648 59.6982-23.3027 59.6982-14.1738 64.9033-9.60938 75.3135-9.60938L82.6406-9.60938 80.7188 0 3.72364 0 5.64551-9.60938 7.32715-9.60938C13.9736-9.60938 18.9785-11.271 22.3418-14.5942 25.7051-17.9175 28.1875-23.4629 29.7891-31.2305L48.167-121.799C48.8076-124.922 49.1279-127.604 49.1279-129.847 49.1279-138.895 43.3223-143.42 31.7109-143.42L30.5098-143.42Z" stroke="#FFFFFF" stroke-linejoin="round" stroke-miterlimit="10" fill="#70AD47" fill-rule="evenodd" transform="matrix(1 0 0 1.00013 457.204 185.859)"/><text fill="#000000" fill-opacity="0" font-family="Arial,Arial_MSFontService,sans-serif" font-size="155.792" x="3.72364" y="-16.7113">Rec</text><rect x="328" y="111.015" width="134" height="6.00073" fill="#4472C4"/><rect x="462" y="111.015" width="12.0001" height="6.00073" fill="#92D050"/><rect x="316" y="111.015" width="12" height="6.00073" fill="#00B0F0"/><rect x="341" y="98.0131" width="105" height="6.00084" fill="#FFC000"/><rect x="446" y="98.0131" width="12" height="6.00084" fill="#92D050"/><rect x="332" y="98.0131" width="11" height="6.00084" fill="#00B0F0"/><rect x="363" y="73.0097" width="64" height="6.00084" fill="#ED7D31"/><rect x="427" y="73.0097" width="12" height="6.00084" fill="#92D050"/><rect x="351" y="73.0097" width="11" height="6.00084" fill="#00B0F0"/><rect x="369" y="60.008" width="52" height="6.00073" fill="#A5A5A5"/><rect x="421" y="60.008" width="12" height="6.00073" fill="#92D050"/><rect x="357" y="60.008" width="12.0001" height="6.00073" fill="#00B0F0"/><rect x="376" y="47.0063" width="37.9999" height="6.00084" fill="#FF0000"/><rect x="414" y="47.0063" width="12.0001" height="6.00084" fill="#92D050"/><rect x="364" y="47.0063" width="12.0001" height="6.00084" fill="#00B0F0"/><rect x="386" y="35.0047" width="17" height="5.00063" fill="#7030A0"/><rect x="403" y="35.0047" width="12" height="5.00063" fill="#92D050"/><rect x="374" y="35.0047" width="12" height="5.00063" fill="#00B0F0"/><rect x="353" y="86.0115" width="84.0001" height="5.00063" fill="#44546A"/><rect x="437" y="86.0115" width="12" height="5.00063" fill="#92D050"/><rect x="341" y="86.0115" width="12" height="5.00063" fill="#00B0F0"/><rect x="341" y="124.017" width="105" height="5.00073" fill="#FFC000"/><rect x="446" y="124.017" width="12" height="5.00073" fill="#92D050"/><rect x="332" y="124.017" width="11" height="5.00073" fill="#00B0F0"/><rect x="353" y="137.018" width="84.0001" height="5.00063" fill="#44546A"/><rect x="437" y="137.018" width="12" height="5.00063" fill="#92D050"/><rect x="341" y="137.018" width="12" height="5.00063" fill="#00B0F0"/><rect x="363" y="149.02" width="64" height="6.00084" fill="#ED7D31"/><rect x="427" y="149.02" width="12" height="6.00084" fill="#92D050"/><rect x="351" y="149.02" width="11" height="6.00084" fill="#00B0F0"/><rect x="369" y="162.022" width="52" height="6.00073" fill="#A5A5A5"/><rect x="421" y="162.022" width="12" height="6.00073" fill="#92D050"/><rect x="357" y="162.022" width="12.0001" height="6.00073" fill="#00B0F0"/><rect x="376" y="175.023" width="37.9999" height="5.00073" fill="#FF0000"/><rect x="414" y="175.023" width="12.0001" height="5.00073" fill="#92D050"/><rect x="364" y="175.023" width="12.0001" height="5.00073" fill="#00B0F0"/><rect x="386" y="188.025" width="17" height="5.00063" fill="#7030A0"/><rect x="403" y="188.025" width="12" height="5.00063" fill="#92D050"/><rect x="374" y="188.025" width="12" height="5.00063" fill="#00B0F0"/></g></svg>